<svg xmlns="http://www.w3.org/2000/svg" viewBox="0 0 100 100">
  <defs>
    <linearGradient id="eversoft-grad" x1="0%" y1="100%" x2="100%" y2="0%">
      <stop offset="0%" stop-color="#00a2b1" />
      <stop offset="60%" stop-color="#2ecc71" />
      <stop offset="100%" stop-color="#6bcb4c" />
    </linearGradient>
  </defs>
  <rect width="100" height="100" rx="20" fill="#ffffff" />
  <g transform="translate(10, 10) scale(0.8)">
    <g fill="#00a2b1">
      <rect x="20" y="12" width="5" height="5" rx="1" />
      <rect x="27" y="12" width="5" height="5" rx="1" />
      <rect x="34" y="15" width="7" height="7" rx="1.5" />
      <rect x="25" y="20" width="6" height="6" rx="1.2" />
      <rect x="33" y="20" width="6" height="6" rx="1.2" />
      <rect x="20" y="27" width="5" height="5" rx="1" />
      <rect x="27" y="27" width="6" height="6" rx="1.2" />
      <rect x="24" y="35" width="5" height="5" rx="1" />
    </g>
    <path
      d="M 17,50 A 38,38 0 0,1 76.8,81.1 L 88,88 L 86.1,71.8 A 38,38 0 0,1 55,12 L 55,23 A 27,27 0 1,1 28,50 Z"
      fill="url(#eversoft-grad)"
      fill-rule="evenodd"
    />
    <path
      d="M 44,30 L 71,30 L 71,34 L 67,38 L 54,38 L 54,46 L 64,46 L 68,50 L 64,54 L 54,54 L 54,62 L 67,62 L 71,66 L 71,70 L 44,70 Z"
      fill="#1fa357"
    />
  </g>
</svg>
